<mxfile host="app.diagrams.net" agent="Mozilla/5.0 (Windows NT 10.0; Win64; x64) AppleWebKit/537.36 (KHTML, like Gecko) Chrome/138.0.0.0 Safari/537.36" version="27.2.0">
  <diagram name="Page-1" id="xK95l9zC4GOYJRdqOB2q">
    <mxGraphModel dx="1307" dy="507" grid="1" gridSize="10" guides="1" tooltips="1" connect="1" arrows="1" fold="1" page="1" pageScale="1" pageWidth="850" pageHeight="1100" math="0" shadow="0">
      <root>
        <mxCell id="0" />
        <mxCell id="1" parent="0" />
        <mxCell id="CZyFofMT-6BepxbUikvj-1" value="" style="rounded=0;whiteSpace=wrap;html=1;movable=0;resizable=0;rotatable=0;deletable=0;editable=0;locked=1;connectable=0;" vertex="1" parent="1">
          <mxGeometry x="80" y="40" width="690" height="470" as="geometry" />
        </mxCell>
        <mxCell id="CZyFofMT-6BepxbUikvj-2" value="" style="endArrow=none;html=1;rounded=0;movable=0;resizable=0;rotatable=0;deletable=0;editable=0;locked=1;connectable=0;fillColor=none;strokeColor=default;" edge="1" parent="1">
          <mxGeometry width="50" height="50" relative="1" as="geometry">
            <mxPoint x="280" y="510" as="sourcePoint" />
            <mxPoint x="280" y="40" as="targetPoint" />
          </mxGeometry>
        </mxCell>
        <mxCell id="CZyFofMT-6BepxbUikvj-4" value="" style="endArrow=none;html=1;rounded=0;movable=0;resizable=0;rotatable=0;deletable=0;editable=0;locked=1;connectable=0;fillColor=none;strokeColor=default;" edge="1" parent="1">
          <mxGeometry width="50" height="50" relative="1" as="geometry">
            <mxPoint x="80" y="90" as="sourcePoint" />
            <mxPoint x="280" y="90" as="targetPoint" />
          </mxGeometry>
        </mxCell>
        <mxCell id="CZyFofMT-6BepxbUikvj-5" value="" style="ellipse;whiteSpace=wrap;html=1;aspect=fixed;fillColor=#AFAFAF;movable=0;resizable=0;rotatable=0;deletable=0;editable=0;locked=1;connectable=0;" vertex="1" parent="1">
          <mxGeometry x="90" y="50" width="30" height="30" as="geometry" />
        </mxCell>
        <mxCell id="CZyFofMT-6BepxbUikvj-6" value="&lt;b&gt;SPK Guru Terbaik&lt;/b&gt;" style="text;html=1;align=center;verticalAlign=middle;whiteSpace=wrap;rounded=0;movable=0;resizable=0;rotatable=0;deletable=0;editable=0;locked=1;connectable=0;" vertex="1" parent="1">
          <mxGeometry x="130" y="50" width="110" height="30" as="geometry" />
        </mxCell>
        <mxCell id="CZyFofMT-6BepxbUikvj-7" value="" style="endArrow=none;html=1;rounded=0;movable=0;resizable=0;rotatable=0;deletable=0;editable=0;locked=1;connectable=0;fillColor=none;strokeColor=default;" edge="1" parent="1">
          <mxGeometry width="50" height="50" relative="1" as="geometry">
            <mxPoint x="80" y="140" as="sourcePoint" />
            <mxPoint x="280" y="140" as="targetPoint" />
          </mxGeometry>
        </mxCell>
        <mxCell id="CZyFofMT-6BepxbUikvj-8" value="" style="ellipse;whiteSpace=wrap;html=1;aspect=fixed;fillColor=#AFAFAF;movable=0;resizable=0;rotatable=0;deletable=0;editable=0;locked=1;connectable=0;" vertex="1" parent="1">
          <mxGeometry x="90" y="100" width="30" height="30" as="geometry" />
        </mxCell>
        <mxCell id="CZyFofMT-6BepxbUikvj-9" value="&lt;b&gt;Admin&lt;/b&gt;" style="text;html=1;align=center;verticalAlign=middle;whiteSpace=wrap;rounded=0;movable=0;resizable=0;rotatable=0;deletable=0;editable=0;locked=1;connectable=0;" vertex="1" parent="1">
          <mxGeometry x="130" y="100" width="50" height="30" as="geometry" />
        </mxCell>
        <mxCell id="CZyFofMT-6BepxbUikvj-10" value="" style="whiteSpace=wrap;html=1;aspect=fixed;fillColor=#AFAFAF;movable=0;resizable=0;rotatable=0;deletable=0;editable=0;locked=1;connectable=0;" vertex="1" parent="1">
          <mxGeometry x="90" y="160" width="30" height="30" as="geometry" />
        </mxCell>
        <mxCell id="CZyFofMT-6BepxbUikvj-11" value="" style="whiteSpace=wrap;html=1;aspect=fixed;fillColor=#AFAFAF;movable=0;resizable=0;rotatable=0;deletable=0;editable=0;locked=1;connectable=0;" vertex="1" parent="1">
          <mxGeometry x="90" y="200" width="30" height="30" as="geometry" />
        </mxCell>
        <mxCell id="CZyFofMT-6BepxbUikvj-12" value="" style="whiteSpace=wrap;html=1;aspect=fixed;fillColor=#AFAFAF;movable=0;resizable=0;rotatable=0;deletable=0;editable=0;locked=1;connectable=0;" vertex="1" parent="1">
          <mxGeometry x="90" y="240" width="30" height="30" as="geometry" />
        </mxCell>
        <mxCell id="CZyFofMT-6BepxbUikvj-13" value="" style="whiteSpace=wrap;html=1;aspect=fixed;fillColor=#AFAFAF;movable=0;resizable=0;rotatable=0;deletable=0;editable=0;locked=1;connectable=0;" vertex="1" parent="1">
          <mxGeometry x="90" y="280" width="30" height="30" as="geometry" />
        </mxCell>
        <mxCell id="CZyFofMT-6BepxbUikvj-14" value="" style="whiteSpace=wrap;html=1;aspect=fixed;fillColor=#AFAFAF;movable=0;resizable=0;rotatable=0;deletable=0;editable=0;locked=1;connectable=0;" vertex="1" parent="1">
          <mxGeometry x="90" y="320" width="30" height="30" as="geometry" />
        </mxCell>
        <mxCell id="CZyFofMT-6BepxbUikvj-15" value="" style="whiteSpace=wrap;html=1;aspect=fixed;fillColor=#AFAFAF;movable=0;resizable=0;rotatable=0;deletable=0;editable=0;locked=1;connectable=0;" vertex="1" parent="1">
          <mxGeometry x="90" y="360" width="30" height="30" as="geometry" />
        </mxCell>
        <mxCell id="CZyFofMT-6BepxbUikvj-16" value="" style="whiteSpace=wrap;html=1;aspect=fixed;fillColor=#AFAFAF;movable=0;resizable=0;rotatable=0;deletable=0;editable=0;locked=1;connectable=0;" vertex="1" parent="1">
          <mxGeometry x="90" y="400" width="30" height="30" as="geometry" />
        </mxCell>
        <mxCell id="CZyFofMT-6BepxbUikvj-17" value="&lt;b&gt;Dashboard&lt;/b&gt;" style="text;html=1;align=left;verticalAlign=middle;whiteSpace=wrap;rounded=0;movable=0;resizable=0;rotatable=0;deletable=0;editable=0;locked=1;connectable=0;" vertex="1" parent="1">
          <mxGeometry x="130" y="160" width="110" height="30" as="geometry" />
        </mxCell>
        <mxCell id="CZyFofMT-6BepxbUikvj-19" value="&lt;b&gt;Data Alternatif&lt;/b&gt;" style="text;html=1;align=left;verticalAlign=middle;whiteSpace=wrap;rounded=0;movable=0;resizable=0;rotatable=0;deletable=0;editable=0;locked=1;connectable=0;" vertex="1" parent="1">
          <mxGeometry x="130" y="200" width="110" height="30" as="geometry" />
        </mxCell>
        <mxCell id="CZyFofMT-6BepxbUikvj-20" value="&lt;b&gt;Data Kriteria&lt;/b&gt;" style="text;html=1;align=left;verticalAlign=middle;whiteSpace=wrap;rounded=0;movable=0;resizable=0;rotatable=0;deletable=0;editable=0;locked=1;connectable=0;" vertex="1" parent="1">
          <mxGeometry x="130" y="240" width="110" height="30" as="geometry" />
        </mxCell>
        <mxCell id="CZyFofMT-6BepxbUikvj-21" value="&lt;b&gt;Penilaian&lt;/b&gt;" style="text;html=1;align=left;verticalAlign=middle;whiteSpace=wrap;rounded=0;movable=0;resizable=0;rotatable=0;deletable=0;editable=0;locked=1;connectable=0;" vertex="1" parent="1">
          <mxGeometry x="130" y="280" width="110" height="30" as="geometry" />
        </mxCell>
        <mxCell id="CZyFofMT-6BepxbUikvj-22" value="&lt;b&gt;Hasil ARAS&lt;/b&gt;" style="text;html=1;align=left;verticalAlign=middle;whiteSpace=wrap;rounded=0;movable=0;resizable=0;rotatable=0;deletable=0;editable=0;locked=1;connectable=0;" vertex="1" parent="1">
          <mxGeometry x="130" y="320" width="110" height="30" as="geometry" />
        </mxCell>
        <mxCell id="CZyFofMT-6BepxbUikvj-23" value="&lt;b&gt;Kelola Admin&lt;/b&gt;" style="text;html=1;align=left;verticalAlign=middle;whiteSpace=wrap;rounded=0;movable=0;resizable=0;rotatable=0;deletable=0;editable=0;locked=1;connectable=0;" vertex="1" parent="1">
          <mxGeometry x="130" y="360" width="110" height="30" as="geometry" />
        </mxCell>
        <mxCell id="CZyFofMT-6BepxbUikvj-24" value="&lt;b&gt;Logout&lt;/b&gt;" style="text;html=1;align=left;verticalAlign=middle;whiteSpace=wrap;rounded=0;movable=0;resizable=0;rotatable=0;deletable=0;editable=0;locked=1;connectable=0;" vertex="1" parent="1">
          <mxGeometry x="130" y="400" width="110" height="30" as="geometry" />
        </mxCell>
        <mxCell id="CZyFofMT-6BepxbUikvj-25" value="" style="endArrow=none;html=1;rounded=0;" edge="1" parent="1">
          <mxGeometry width="50" height="50" relative="1" as="geometry">
            <mxPoint x="280" y="90" as="sourcePoint" />
            <mxPoint x="770" y="90" as="targetPoint" />
          </mxGeometry>
        </mxCell>
        <mxCell id="CZyFofMT-6BepxbUikvj-26" value="" style="ellipse;whiteSpace=wrap;html=1;aspect=fixed;fillColor=#AFAFAF;" vertex="1" parent="1">
          <mxGeometry x="730" y="50" width="30" height="30" as="geometry" />
        </mxCell>
        <mxCell id="CZyFofMT-6BepxbUikvj-31" value="" style="group" vertex="1" connectable="0" parent="1">
          <mxGeometry x="290" y="55" width="30" height="20" as="geometry" />
        </mxCell>
        <mxCell id="CZyFofMT-6BepxbUikvj-27" value="" style="endArrow=none;html=1;rounded=0;" edge="1" parent="CZyFofMT-6BepxbUikvj-31">
          <mxGeometry width="50" height="50" relative="1" as="geometry">
            <mxPoint as="sourcePoint" />
            <mxPoint x="30" as="targetPoint" />
          </mxGeometry>
        </mxCell>
        <mxCell id="CZyFofMT-6BepxbUikvj-29" value="" style="endArrow=none;html=1;rounded=0;" edge="1" parent="CZyFofMT-6BepxbUikvj-31">
          <mxGeometry width="50" height="50" relative="1" as="geometry">
            <mxPoint y="10" as="sourcePoint" />
            <mxPoint x="30" y="10" as="targetPoint" />
          </mxGeometry>
        </mxCell>
        <mxCell id="CZyFofMT-6BepxbUikvj-30" value="" style="endArrow=none;html=1;rounded=0;" edge="1" parent="CZyFofMT-6BepxbUikvj-31">
          <mxGeometry width="50" height="50" relative="1" as="geometry">
            <mxPoint y="20" as="sourcePoint" />
            <mxPoint x="30" y="20" as="targetPoint" />
          </mxGeometry>
        </mxCell>
        <mxCell id="CZyFofMT-6BepxbUikvj-36" value="Jumlah Alternatif" style="rounded=1;whiteSpace=wrap;html=1;fillColor=#DADADA;" vertex="1" parent="1">
          <mxGeometry x="290" y="120" width="100" height="60" as="geometry" />
        </mxCell>
        <mxCell id="CZyFofMT-6BepxbUikvj-37" value="Jumlah Kriteria" style="rounded=1;whiteSpace=wrap;html=1;fillColor=#DADADA;" vertex="1" parent="1">
          <mxGeometry x="420" y="120" width="100" height="60" as="geometry" />
        </mxCell>
        <mxCell id="CZyFofMT-6BepxbUikvj-38" value="Jumlah Admin" style="rounded=1;whiteSpace=wrap;html=1;fillColor=#DADADA;" vertex="1" parent="1">
          <mxGeometry x="660" y="120" width="100" height="60" as="geometry" />
        </mxCell>
        <mxCell id="CZyFofMT-6BepxbUikvj-39" value="Data Penilaian" style="rounded=1;whiteSpace=wrap;html=1;fillColor=#DADADA;" vertex="1" parent="1">
          <mxGeometry x="540" y="120" width="100" height="60" as="geometry" />
        </mxCell>
        <mxCell id="CZyFofMT-6BepxbUikvj-41" value="" style="rounded=0;whiteSpace=wrap;html=1;fillColor=#DADADA;" vertex="1" parent="1">
          <mxGeometry x="290" y="230" width="140" height="170" as="geometry" />
        </mxCell>
        <mxCell id="CZyFofMT-6BepxbUikvj-44" value="" style="rounded=0;whiteSpace=wrap;html=1;fillColor=#DADADA;" vertex="1" parent="1">
          <mxGeometry x="610" y="230" width="140" height="170" as="geometry" />
        </mxCell>
        <mxCell id="CZyFofMT-6BepxbUikvj-45" value="" style="rounded=0;whiteSpace=wrap;html=1;fillColor=#DADADA;" vertex="1" parent="1">
          <mxGeometry x="450" y="230" width="140" height="170" as="geometry" />
        </mxCell>
        <mxCell id="CZyFofMT-6BepxbUikvj-46" value="" style="endArrow=none;html=1;rounded=0;" edge="1" parent="1">
          <mxGeometry width="50" height="50" relative="1" as="geometry">
            <mxPoint x="280" y="470" as="sourcePoint" />
            <mxPoint x="770" y="470" as="targetPoint" />
          </mxGeometry>
        </mxCell>
      </root>
    </mxGraphModel>
  </diagram>
</mxfile>
